<svg width="71" height="70" viewBox="0 0 71 70" fill="none" xmlns="http://www.w3.org/2000/svg">
<g clip-path="url(#clip0_7446_32426)">
<path d="M68.2472 46.5368C64.9371 56.8567 56.7591 64.9374 46.3418 68.1502C35.6325 71.4603 25.41 69.9026 17.232 65.0348C15.2848 63.8665 13.3377 62.5035 11.6826 60.9457C6.1332 56.0779 2.14155 49.3602 0.681186 41.7663C-0.389746 36.3143 -0.195031 30.4729 1.46005 24.4367C4.0887 14.7983 11.0011 6.81501 20.25 3.01807C49.652 -9.24897 77.6909 17.3296 68.2472 46.5368Z" fill="#CDD3DD"/>
<path d="M11.683 41.7664V61.0431C6.13366 56.0779 2.142 49.3602 0.681641 41.7664H11.683Z" fill="#4B4D74"/>
<path d="M61.3344 8.66475H36.0215V5.74402C36.0215 4.67309 36.8977 3.79688 37.9686 3.79688H59.3873C60.4582 3.79688 61.3344 4.67309 61.3344 5.74402V8.66475Z" fill="#EBC852"/>
<path d="M36.0215 8.66479H61.3344V11.5855C61.3344 12.6564 60.4582 13.5327 59.3873 13.5327H37.9686C36.8977 13.5327 36.0215 12.6564 36.0215 11.5855V8.66479Z" fill="#DF9845"/>
<path d="M61.3342 8.66475H48.6777V5.74402C48.6777 4.67309 49.554 3.79688 50.6249 3.79688H59.3871C60.458 3.79688 61.3342 4.67309 61.3342 5.74402V8.66475Z" fill="#EBC852"/>
<path d="M52.572 8.66475H48.6777V5.74402C48.6777 4.67309 49.554 3.79688 50.6249 3.79688H52.572V8.66475Z" fill="#ECD586"/>
<path d="M44.7837 8.66475H36.0215V5.74402C36.0215 4.67309 36.8977 3.79688 37.9686 3.79688H44.7837V8.66475ZM48.678 8.66475H61.3344V11.5855C61.3344 12.6564 60.4582 13.5326 59.3873 13.5326H50.6251C49.5542 13.5326 48.678 12.6564 48.678 11.5855V8.66475Z" fill="#E3A846"/>
<path d="M62.309 8.66475H36.9961V5.74402C36.9961 4.67309 37.8723 3.79688 38.9432 3.79688H60.3619C61.4328 3.79688 62.309 4.67309 62.309 5.74402V8.66475Z" fill="#EBC852"/>
<path d="M36.9961 8.66479H62.309V11.5855C62.309 12.6564 61.4328 13.5327 60.3619 13.5327H38.9432C37.8723 13.5327 36.9961 12.6564 36.9961 11.5855V8.66479Z" fill="#DF9845"/>
<path d="M62.3088 8.66475H49.6523V5.74402C49.6523 4.67309 50.5286 3.79688 51.5995 3.79688H60.3617C61.4326 3.79688 62.3088 4.67309 62.3088 5.74402V8.66475Z" fill="#EBC852"/>
<path d="M53.5466 8.66475H49.6523V5.74402C49.6523 4.67309 50.5286 3.79688 51.5995 3.79688H53.5466V8.66475Z" fill="#ECD586"/>
<path d="M45.7583 8.66475H36.9961V5.74402C36.9961 4.67309 37.8723 3.79688 38.9432 3.79688H45.7583V8.66475ZM49.6526 8.66475H62.309V11.5855C62.309 12.6564 61.4328 13.5326 60.3619 13.5326H51.5997C50.5288 13.5326 49.6526 12.6564 49.6526 11.5855V8.66475Z" fill="#E3A846"/>
<path d="M59.3871 18.4005H34.0742V15.4797C34.0742 14.4088 34.9504 13.5326 36.0214 13.5326H57.44C58.5109 13.5326 59.3871 14.4088 59.3871 15.4797V18.4005Z" fill="#EBC852"/>
<path d="M34.0742 18.4006H59.3871V21.3213C59.3871 22.3922 58.5109 23.2684 57.44 23.2684H36.0214C34.9504 23.2684 34.0742 22.3922 34.0742 21.3213V18.4006Z" fill="#DF9845"/>
<path d="M59.3869 18.4005H46.7305V15.4797C46.7305 14.4088 47.6067 13.5326 48.6776 13.5326H57.4398C58.5107 13.5326 59.3869 14.4088 59.3869 15.4797V18.4005Z" fill="#EBC852"/>
<path d="M50.6248 18.4005H46.7305V15.4797C46.7305 14.4088 47.6067 13.5326 48.6776 13.5326H50.6248V18.4005Z" fill="#ECD586"/>
<path d="M42.8364 18.4005H34.0742V15.4797C34.0742 14.4088 34.9504 13.5326 36.0214 13.5326H42.8364V18.4005ZM46.7307 18.4005H59.3871V21.3212C59.3871 22.3921 58.5109 23.2683 57.44 23.2683H48.6778C47.6069 23.2683 46.7307 22.3921 46.7307 21.3212V18.4005Z" fill="#E3A846"/>
<path d="M63.2817 28.1362H37.9688V25.2155C37.9688 24.1446 38.845 23.2684 39.9159 23.2684H61.3345C62.4055 23.2684 63.2817 24.1446 63.2817 25.2155V28.1362Z" fill="#EBC852"/>
<path d="M37.9688 28.1362H63.2817V31.057C63.2817 32.1279 62.4055 33.0041 61.3345 33.0041H39.9159C38.845 33.0041 37.9688 32.1279 37.9688 31.057V28.1362Z" fill="#DF9845"/>
<path d="M63.2815 28.1362H50.625V25.2155C50.625 24.1446 51.5012 23.2684 52.5721 23.2684H61.3343C62.4053 23.2684 63.2815 24.1446 63.2815 25.2155V28.1362Z" fill="#EBC852"/>
<path d="M54.5193 28.1362H50.625V25.2155C50.625 24.1446 51.5012 23.2684 52.5722 23.2684H54.5193V28.1362Z" fill="#ECD586"/>
<path d="M46.7309 28.1362H37.9688V25.2155C37.9688 24.1446 38.845 23.2684 39.9159 23.2684H46.7309V28.1362ZM50.6252 28.1362H63.2817V31.057C63.2817 32.1279 62.4055 33.0041 61.3345 33.0041H52.5724C51.5014 33.0041 50.6252 32.1279 50.6252 31.057V28.1362Z" fill="#E3A846"/>
<path d="M58.4145 37.872H33.1016V34.9513C33.1016 33.8804 33.9778 33.0042 35.0487 33.0042H56.4673C57.5383 33.0042 58.4145 33.8804 58.4145 34.9513V37.872Z" fill="#EBC852"/>
<path d="M33.1016 37.872H58.4145V40.7927C58.4145 41.8637 57.5383 42.7399 56.4673 42.7399H35.0487C33.9778 42.7399 33.1016 41.8637 33.1016 40.7927V37.872Z" fill="#DF9845"/>
<path d="M58.4143 37.872H45.7578V34.9513C45.7578 33.8804 46.634 33.0042 47.705 33.0042H56.4671C57.5381 33.0042 58.4143 33.8804 58.4143 34.9513V37.872Z" fill="#EBC852"/>
<path d="M49.6521 37.872H45.7578V34.9513C45.7578 33.8804 46.634 33.0042 47.705 33.0042H49.6521V37.872Z" fill="#ECD586"/>
<path d="M41.8637 37.872H33.1016V34.9513C33.1016 33.8804 33.9778 33.0042 35.0487 33.0042H41.8637V37.872ZM45.758 37.872H58.4145V40.7927C58.4145 41.8637 57.5383 42.7399 56.4673 42.7399H47.7052C46.6342 42.7399 45.758 41.8637 45.758 40.7927V37.872Z" fill="#E3A846"/>
<path d="M59.3871 47.6078H34.0742V44.6871C34.0742 43.6161 34.9504 42.7399 36.0214 42.7399H57.44C58.5109 42.7399 59.3871 43.6161 59.3871 44.6871V47.6078Z" fill="#EBC852"/>
<path d="M34.0742 47.6078H59.3871V50.5285C59.3871 51.5994 58.5109 52.4757 57.44 52.4757H36.0214C34.9504 52.4757 34.0742 51.5994 34.0742 50.5285V47.6078Z" fill="#DF9845"/>
<path d="M59.3869 47.6078H46.7305V44.6871C46.7305 43.6161 47.6067 42.7399 48.6776 42.7399H57.4398C58.5107 42.7399 59.3869 43.6161 59.3869 44.6871V47.6078Z" fill="#EBC852"/>
<path d="M50.6248 47.6078H46.7305V44.6871C46.7305 43.6161 47.6067 42.7399 48.6776 42.7399H50.6248V47.6078Z" fill="#ECD586"/>
<path d="M42.8364 47.6078H34.0742V44.6871C34.0742 43.6161 34.9504 42.7399 36.0214 42.7399H42.8364V47.6078ZM46.7307 47.6078H59.3871V50.5285C59.3871 51.5995 58.5109 52.4757 57.44 52.4757H48.6778C47.6069 52.4757 46.7307 51.5995 46.7307 50.5285V47.6078Z" fill="#E3A846"/>
<path d="M34.0742 47.6077H59.3871V50.3337C59.3871 51.502 58.4136 52.4756 57.2453 52.4756H36.2161C35.0478 52.4756 34.0742 51.502 34.0742 50.3337V47.6077Z" fill="#E3A846"/>
<path d="M55.4944 51.502C62.4843 51.502 68.1508 45.8355 68.1508 38.8456C68.1508 31.8556 62.4843 26.1891 55.4944 26.1891C48.5044 26.1891 42.8379 31.8556 42.8379 38.8456C42.8379 45.8355 48.5044 51.502 55.4944 51.502Z" fill="#EBC852"/>
<path d="M55.4949 48.7759C60.9793 48.7759 65.4254 44.3299 65.4254 38.8454C65.4254 33.361 60.9793 28.915 55.4949 28.915C50.0105 28.915 45.5645 33.361 45.5645 38.8454C45.5645 44.3299 50.0105 48.7759 55.4949 48.7759Z" fill="#E3A846"/>
<path d="M63.2829 47.6077C62.4067 47.6077 61.5305 47.5104 60.6543 47.3157C54.3261 46.1474 49.6529 40.598 49.6529 33.9777C49.6529 32.8094 49.8476 31.6411 50.1397 30.4728C50.5291 29.1098 51.0159 27.8442 51.7948 26.7733C46.5375 28.331 42.8379 33.1988 42.8379 38.8456C42.8379 45.8553 48.4846 51.502 55.4944 51.502C59.0966 51.502 62.4067 49.9443 64.646 47.5104C64.2565 47.6077 63.7697 47.6077 63.2829 47.6077Z" fill="#E3A846"/>
<path d="M60.6549 47.3155C59.1945 48.1918 57.3447 48.7759 55.4949 48.7759C50.0429 48.7759 45.5645 44.2975 45.5645 38.8455C45.5645 35.3406 47.4142 32.2252 50.1403 30.4727C49.8482 31.641 49.6535 32.8093 49.6535 33.9776C49.6535 40.5979 54.3266 46.1473 60.6549 47.3155Z" fill="#DF9845"/>
<path d="M19.4707 42.7399C19.4707 42.7399 21.9046 42.9346 24.3386 42.7399C26.091 42.5451 28.2329 41.4742 29.9853 40.8901C33.6849 39.6244 38.9422 42.7399 38.9422 42.7399C38.9422 42.7399 41.9603 44.687 45.3678 45.2712L49.6515 46.3421C49.6515 46.3421 54.5194 47.6077 52.8643 50.9179L56.1745 49.3602L61.237 47.0236L65.9102 44.5897C65.9102 44.5897 68.3441 43.6161 69.3177 45.6606C69.8045 46.6342 69.9018 47.413 69.8045 47.8998C69.8045 48.484 69.5124 49.0681 69.0256 49.4575L65.2287 52.573L60.5555 55.8831L55.0062 58.9986C55.0062 58.9986 49.0674 62.6008 44.6863 62.9902C40.3052 63.3796 31.1536 60.751 31.1536 60.751L29.2064 60.2642L22.3914 57.3435H19.4707V42.7399Z" fill="#F6E6D6"/>
<path d="M24.728 50.6258C24.6306 54.6175 26.5778 58.2197 29.5959 60.3616L29.2064 60.2642L23.365 57.7329C22.7809 57.4409 22.0994 57.3435 21.4179 57.3435H19.4707V42.7399H22.1967C24.3386 42.6425 27.8434 41.5716 29.9853 40.8901C30.2774 40.7927 30.5695 40.6954 30.8615 40.6954C27.2593 42.6425 24.8254 46.3421 24.728 50.6258Z" fill="#EBD1BC"/>
<path d="M20.4458 52.4756H11.6836V41.7663C11.6836 40.6954 12.5598 39.8192 13.6307 39.8192H18.4986C19.5695 39.8192 20.4458 40.6954 20.4458 41.7663V52.4756Z" fill="#B3D0E5"/>
<path d="M20.4458 52.4756V63.1849C20.4458 64.2558 19.5695 65.1321 18.4986 65.1321H17.233C15.2858 63.9638 13.3387 62.6008 11.6836 61.043V52.4756H20.4458Z" fill="#9FC6D9"/>
<path opacity="0.7" d="M16.0639 47.6078C16.8704 47.6078 17.5242 46.954 17.5242 46.1474C17.5242 45.3409 16.8704 44.6871 16.0639 44.6871C15.2573 44.6871 14.6035 45.3409 14.6035 46.1474C14.6035 46.954 15.2573 47.6078 16.0639 47.6078Z" fill="white"/>
<path d="M52.8658 51.0154C51.9896 52.6704 48.8742 52.281 48.8742 52.281L38.0675 50.7233C38.0675 50.7233 36.7045 50.8207 36.8019 51.7942C36.8019 52.7678 37.9701 52.9625 37.9701 52.9625L50.3345 54.5202C50.3345 54.5202 53.45 54.3255 54.813 52.0863L56.2733 49.3603" fill="#EBD1BC"/>
</g>
<defs>
<clipPath id="clip0_7446_32426">
<rect width="70.0974" height="70" fill="white"/>
</clipPath>
</defs>
</svg>
