<svg width="22" height="22" viewBox="0 0 22 22" fill="none" xmlns="http://www.w3.org/2000/svg">
<path d="M11 1C5.48609 1 1 5.48609 1 11C1 16.5139 5.48609 21 11 21C16.5139 21 21 16.5139 21 11C21 5.48609 16.5139 1 11 1ZM11.4167 20.1455V18.9166C11.4167 18.6863 11.2303 18.5 11 18.5C10.7697 18.5 10.5833 18.6863 10.5833 18.9166V20.1455C5.86191 19.9318 2.0682 16.1381 1.85441 11.4166H3.08332C3.31363 11.4167 3.5 11.2303 3.5 11C3.5 10.7697 3.31363 10.5833 3.08332 10.5833H1.85441C2.0682 5.86191 5.86187 2.0682 10.5833 1.85441V3.08332C10.5833 3.31363 10.7697 3.5 11 3.5C11.2303 3.5 11.4167 3.31363 11.4167 3.08332V1.85441C16.1381 2.0682 19.9318 5.86187 20.1456 10.5833H18.9167C18.6864 10.5833 18.5 10.7697 18.5 11C18.5 11.2303 18.6864 11.4167 18.9167 11.4167H20.1456C19.9318 16.1381 16.1381 19.9318 11.4167 20.1455Z" fill="#003366" stroke="#003366" stroke-width="0.5"/>
<path d="M11.7916 11.203C11.8088 11.1363 11.8327 11.0719 11.8327 10.9999C11.8327 10.8255 11.7663 10.6725 11.6743 10.5386L14.2936 4.92615C14.3909 4.71783 14.3009 4.46958 14.0922 4.37236C13.8843 4.27669 13.6361 4.36583 13.5384 4.57376L10.921 10.1825C10.5001 10.224 10.166 10.5683 10.166 10.9999C10.166 11.4593 10.54 11.8333 10.9993 11.8333C11.0713 11.8333 11.1357 11.8094 11.2024 11.7922L14.4547 15.0445C14.5361 15.1259 14.6427 15.1666 14.7493 15.1666C14.8559 15.1666 14.9625 15.1259 15.0439 15.0445C15.2067 14.8817 15.2067 14.6181 15.0439 14.4553L11.7916 11.203Z" fill="#003366" stroke="#003366" stroke-width="0.5"/>
</svg>
