<svg width="15" height="17" viewBox="0 0 15 17" fill="none" xmlns="http://www.w3.org/2000/svg">
<path d="M4.53125 3.5V1.96875C4.53125 1.70971 4.74084 1.5 5 1.5H13.5M4.53125 11.7838C4.53125 11.9307 4.53125 13.8174 4.53125 13.7188C4.53125 13.9779 4.74084 14.1875 5 14.1875H10.5" stroke="#FF8900" stroke-width="1.1" stroke-linecap="round" stroke-linejoin="round"/>
<path d="M6.20195 7.51405C6.17008 7.43919 6.12446 7.37109 6.06634 7.31404L4.19193 5.47412C3.94756 5.23486 3.55255 5.23486 3.30818 5.47412C3.06381 5.714 3.06381 6.10234 3.30818 6.34161L4.11632 7.13487H0.624997C0.279378 7.13487 0 7.40971 0 7.74837C0 8.08702 0.279378 8.36186 0.624997 8.36186H4.11629L3.30815 9.15513C3.06378 9.395 3.06378 9.78335 3.30815 10.0226C3.43003 10.1429 3.59002 10.2024 3.75004 10.2024C3.91006 10.2024 4.07005 10.1429 4.19193 10.0226L6.06634 8.1827C6.12446 8.12625 6.17008 8.05815 6.20195 7.98269C6.26506 7.83306 6.26506 7.66373 6.20195 7.51405Z" fill="#FF8900"/>
<path d="M14 1.46874C14 1.29991 13.8839 1.14427 13.6958 1.0609C13.5077 0.977648 13.2769 0.979846 13.0911 1.06688L8.29109 3.87938C8.11062 3.96398 8 4.11644 8 4.28124V16.5312C8 16.7002 8.11594 16.8558 8.30406 16.9391C8.49172 17.0222 8.72266 17.0203 8.90875 16.9332L13.7088 14.1207C13.8892 14.036 14 13.8835 14 13.7187V1.46874Z" fill="#FF8900"/>
</svg>
