<svg width="16" height="17" viewBox="0 0 16 17" fill="none" xmlns="http://www.w3.org/2000/svg">
<path d="M5.1875 1.45778V5.3301C5.64453 5.16762 6.07532 5.23329 6.43677 5.47524L8.35388 6.91176C8.70362 7.14296 8.9375 7.58059 8.9375 8.05153C8.9375 8.5226 8.70362 8.96023 8.31128 9.22158L6.47888 10.5977C6.04004 10.8936 5.61865 10.926 5.1875 10.7728C5.1875 10.9197 5.1875 13.8064 5.1875 13.7078C5.1875 13.9669 5.39709 14.1765 5.65625 14.1765H9.875V4.27028C9.875 3.80019 10.1149 3.35622 10.5054 3.09755L13.3167 0.989027H5.65625C5.39709 0.989027 5.1875 1.19874 5.1875 1.45778Z" fill="white"/>
<path d="M15.5 1.45776C15.5 1.28894 15.4093 1.1333 15.2623 1.04992C15.1154 0.96667 14.9351 0.968867 14.7899 1.0559L11.0399 3.86841C10.8989 3.953 10.8125 4.10547 10.8125 4.27026V16.5203C10.8125 16.6892 10.9031 16.8449 11.05 16.9281C11.1967 17.0112 11.3771 17.0093 11.5225 16.9222L15.2725 14.1097C15.4135 14.025 15.5 13.8726 15.5 13.7078V1.45776ZM12.2196 10.3953C11.9607 10.3953 11.7509 10.1854 11.7509 9.92652C11.7509 9.66761 11.9607 9.45777 12.2196 9.45777C12.4785 9.45777 12.6884 9.66761 12.6884 9.92652C12.6884 10.1854 12.4785 10.3953 12.2196 10.3953Z" fill="white"/>
<path d="M0.96875 8.98902H5.1875V9.45777C5.1875 9.63086 5.28272 9.78967 5.43518 9.87122C5.58545 9.95178 5.77088 9.9447 5.91626 9.84778L7.79127 8.44153C7.92176 8.35462 8.00001 8.20814 8.00001 8.05164C8.00001 7.89503 7.92176 7.74854 7.79127 7.66163L5.91626 6.25502C5.77295 6.15944 5.58716 6.15065 5.43518 6.2317C5.28272 6.31324 5.1875 6.47206 5.1875 6.64515V7.11415H0.96875C0.709595 7.11415 0.5 7.32374 0.5 7.58289V8.52039C0.5 8.77942 0.709595 8.98902 0.96875 8.98902Z" fill="white"/>
</svg>
