<svg width="70" height="70" viewBox="0 0 70 70" fill="none" xmlns="http://www.w3.org/2000/svg">
<g clip-path="url(#clip0_7446_32525)">
<path d="M68.1525 46.6667C67.5692 48.3194 66.8886 49.9722 66.1108 51.5278C65.5275 52.6944 64.8469 53.7639 64.1664 54.8333C63.2914 56.0972 62.3192 57.3611 61.2497 58.5278C59.3053 60.7639 56.9719 62.7083 54.4442 64.3611C54.0553 64.6528 53.6664 64.8472 53.2775 65.1389C52.0136 65.9167 50.7497 66.5 49.4858 67.0833C48.5136 67.5694 47.4442 67.8611 46.3747 68.25C42.4858 69.4167 38.7914 70 35.0969 70H34.9025C29.9442 70 25.2775 68.9306 21.0969 67.0833C19.833 66.5 18.4719 65.8194 17.3053 65.1389C16.7219 64.8472 16.1386 64.4583 15.6525 64.0694C14.2914 63.1944 12.9303 62.125 11.7636 61.0556C10.6942 60.1806 9.72193 59.2083 8.84693 58.1389C7.97193 57.2639 7.29137 56.3889 6.61082 55.4167C6.31915 55.0278 6.12471 54.7361 5.83304 54.3472C5.15248 53.2778 4.47193 52.2083 3.88859 51.0417C3.49971 50.3611 3.20804 49.6806 2.91637 49C1.94415 46.6667 1.16637 44.3333 0.680261 41.8056C-0.389183 36.4583 -0.194739 30.5278 1.45804 24.5C2.04137 22.2639 2.91637 20.2222 3.88859 18.1806C4.47193 17.0139 5.15248 15.9444 5.83304 14.875C6.70804 13.5139 7.68026 12.25 8.74971 11.0833C9.81915 9.81944 10.9858 8.75 12.3469 7.68056C14.6803 5.73611 17.4025 4.18056 20.2219 2.91667C20.3191 3.01389 20.4164 2.91667 20.5136 2.91667C22.9442 1.94444 25.3747 1.16667 27.8053 0.680556C30.2358 0.194444 32.6664 0 34.9997 0C39.958 0 44.7219 1.06944 48.9997 2.91667C51.9164 4.18056 54.5414 5.83333 56.9719 7.77778C58.5275 9.04167 59.8886 10.4028 61.2497 11.8611C62.3192 13.0278 63.2914 14.2917 64.1664 15.6528C64.8469 16.7222 65.5275 17.7917 66.1108 18.9583C70.1942 26.9306 71.3608 36.5556 68.1525 46.6667Z" fill="#CDD3DD"/>
<path d="M20.4165 7.77771C17.6942 7.77771 15.5553 9.9166 15.5553 12.6388V64.0694C14.1942 63.1944 12.8331 62.1249 11.6665 61.0555C10.597 60.1805 9.62478 59.2083 8.74978 58.1388C7.97201 57.2638 7.29145 56.3888 6.61089 55.4166C6.31923 55.0277 6.12478 54.736 5.83312 54.3472C5.15256 53.2777 4.47201 52.2083 3.88867 51.0416V12.6388C3.88867 9.9166 6.02756 7.77771 8.74978 7.77771H20.4165Z" fill="#4B4D74"/>
<path d="M15.5556 12.6389V64.0695C14.1944 63.1945 12.8333 62.125 11.6667 61.0556C10.5972 60.1806 9.625 59.2084 8.75 58.1389V14.5834C8.75 13.5139 9.625 12.6389 10.6944 12.6389H15.5556Z" fill="#464A67"/>
<path d="M53.2769 65.1388C52.013 65.9166 50.7491 66.4999 49.4852 67.0833C48.513 67.5694 47.4436 67.861 46.3741 68.2499C42.4852 69.4166 38.7908 69.9999 35.0964 69.9999H34.9019C29.9436 69.9999 25.2769 68.9305 21.0964 67.0833C19.8325 66.4999 18.4714 65.8194 17.3047 65.1388H53.2769ZM66.1102 12.6388V51.5277C65.5269 52.6944 64.8464 53.7638 64.1658 54.8333C63.2908 56.0972 62.3186 57.361 61.2491 58.5277V14.5833C61.2491 13.5138 60.3741 12.6388 59.3047 12.6388H15.5547C15.5547 9.9166 17.6936 7.77771 20.4158 7.77771H61.2491C63.9714 7.77771 66.1102 9.9166 66.1102 12.6388Z" fill="#636595"/>
<path d="M61.2491 14.5834V58.625C59.3047 60.8611 56.9714 62.8056 54.4436 64.4584C54.0547 64.75 53.6658 64.9445 53.2769 65.2361H17.2075C16.6241 64.9445 16.0408 64.5556 15.5547 64.1667V12.6389H59.3047C60.3741 12.6389 61.2491 13.5139 61.2491 14.5834Z" fill="#4B4D74"/>
<path d="M54.9299 22.361H48.1243C47.3466 22.361 46.666 21.6804 46.666 20.9027C46.666 20.1249 47.3466 19.4443 48.1243 19.4443H54.9299C55.7077 19.4443 56.3882 20.1249 56.3882 20.9027C56.3882 21.6804 55.7077 22.361 54.9299 22.361Z" fill="#636595"/>
<path d="M54.9301 22.361H52.9857C52.2079 22.361 51.5273 21.6804 51.5273 20.9027C51.5273 20.1249 52.2079 19.4443 52.9857 19.4443H54.9301C55.7079 19.4443 56.3885 20.1249 56.3885 20.9027C56.3885 21.6804 55.7079 22.361 54.9301 22.361Z" fill="#7A7DAF"/>
<path d="M64.1658 46.6666H52.4991C51.4297 46.6666 50.5547 45.7916 50.5547 44.7222V33.0555C50.5547 31.9861 51.4297 31.1111 52.4991 31.1111H64.1658C65.2352 31.1111 66.1102 31.9861 66.1102 33.0555V44.7222C66.1102 45.7916 65.2352 46.6666 64.1658 46.6666Z" fill="#636595"/>
<path d="M64.1671 46.6666H55.4171C54.3477 46.6666 53.4727 45.7916 53.4727 44.7222V33.0555C53.4727 31.9861 54.3477 31.1111 55.4171 31.1111H64.1671C65.2365 31.1111 66.1115 31.9861 66.1115 33.0555V44.7222C66.1115 45.7916 65.2365 46.6666 64.1671 46.6666Z" fill="#7A7DAF"/>
<path d="M9.72157 27.2222V53.4722C9.72157 54.1527 9.33268 54.8333 8.74935 55.1249C8.45768 55.3194 8.16602 55.4166 7.77713 55.4166H6.61046C6.31879 55.0277 6.12435 54.7361 5.83268 54.3472C5.15213 53.2777 4.47157 52.2083 3.88824 51.0416C3.49935 50.3611 3.20768 49.6805 2.91602 48.9999V27.2222C2.91602 26.5416 3.3049 25.861 3.88824 25.5694C4.1799 25.3749 4.47157 25.2777 4.86046 25.2777H7.77713C8.16602 25.2777 8.45768 25.3749 8.74935 25.5694C9.33268 25.861 9.72157 26.5416 9.72157 27.2222Z" fill="#4B4D74"/>
<path d="M9.72157 26.8333V36.9444C9.72157 38.7916 8.16602 40.3472 6.31879 40.3472C4.47157 40.3472 2.91602 38.7916 2.91602 36.9444V26.8333C2.91602 25.9583 3.59657 25.2777 4.47157 25.2777H8.26324C9.04102 25.2777 9.72157 25.9583 9.72157 26.8333Z" fill="#636595"/>
<path d="M62.7086 42.6806C61.6391 41.5139 60.0836 40.8334 58.3336 40.8334C54.9308 40.8334 52.1113 43.6528 52.1113 47.0556V57.9445C52.1113 61.3473 54.9308 64.1667 58.3336 64.1667C61.7363 64.1667 64.5558 61.3473 64.5558 57.9445V47.0556C64.5558 45.3056 63.8752 43.75 62.7086 42.6806ZM61.2502 54.5417C61.2502 56.1945 59.9863 57.4584 58.3336 57.4584C56.6808 57.4584 55.4169 56.1945 55.4169 54.5417V47.3473C55.4169 45.6945 56.6808 44.4306 58.3336 44.4306C59.1113 44.4306 59.8891 44.7223 60.3752 45.3056C60.8613 45.7917 61.2502 46.5695 61.2502 47.3473V54.5417Z" fill="#B3D0E5"/>
<path d="M63.1953 43.1667C62.612 43.1667 61.9314 43.264 61.4453 43.6529C60.862 44.0417 60.4731 44.5279 60.2786 45.1112L60.3759 45.2084C60.862 45.6945 61.2509 46.4723 61.2509 47.2501V54.4445C61.2509 56.0973 59.987 57.3612 58.3342 57.3612C57.5564 57.3612 56.8759 57.0695 56.3898 56.5834V58.3334H54.4453V62.8056C54.6398 63.0001 54.8342 63.0973 55.0286 63.1945C56.0009 63.7779 57.1675 64.1668 58.3342 64.1668C59.5009 64.1668 60.6675 63.7779 61.6398 63.1945C63.3898 62.1251 64.5564 60.1806 64.5564 57.9445V47.0556C64.5564 45.5973 64.0703 44.2362 63.1953 43.1667Z" fill="#D1E3E8"/>
<path d="M63.1947 43.1667C62.6113 43.1667 61.9308 43.2639 61.4447 43.6528C60.8613 44.0417 60.4724 44.5278 60.278 45.1112C59.7919 44.625 59.1113 44.3334 58.3336 44.3334C56.6808 44.3334 55.4169 45.5973 55.4169 47.25V47.6389H54.4447V62.8056C52.9863 61.6389 52.1113 59.8889 52.1113 57.9445V47.0556C52.1113 43.6528 54.9308 40.8334 58.3336 40.8334C60.0836 40.8334 61.6391 41.5139 62.7086 42.6806C62.903 42.7778 63.0974 42.9723 63.1947 43.1667Z" fill="#B3D0E5"/>
<path d="M64.1658 67.0833H52.4991C51.4297 67.0833 50.5547 66.2083 50.5547 65.1388V53.4722C50.5547 52.4027 51.4297 51.5277 52.4991 51.5277H64.1658C65.2352 51.5277 66.1102 52.4027 66.1102 53.4722V65.1388C66.1102 66.2083 65.2352 67.0833 64.1658 67.0833Z" fill="#E3A846"/>
<path d="M64.1671 67.0833H55.4171C54.3477 67.0833 53.4727 66.2083 53.4727 65.1388V53.4722C53.4727 52.4027 54.3477 51.5277 55.4171 51.5277H64.1671C65.2365 51.5277 66.1115 52.4027 66.1115 53.4722V65.1388C66.1115 66.2083 65.2365 67.0833 64.1671 67.0833Z" fill="#EBC852"/>
<path d="M61.2515 57.361C61.2515 58.4304 60.6682 59.4027 59.7932 59.8888V62.2221C59.7932 62.7082 59.3071 63.1943 58.821 63.1943H57.6543C58.1404 63.0971 58.4321 62.7082 58.4321 62.2221V59.8888C59.3071 59.4027 59.8904 58.4304 59.8904 57.361C59.8904 55.9999 58.9182 54.8332 57.6543 54.5416C57.8487 54.4443 58.1404 54.4443 58.3349 54.4443C59.9876 54.4443 61.2515 55.7082 61.2515 57.361Z" fill="#DF9845"/>
<path d="M59.8882 57.3611C59.8882 58.4305 59.3049 59.4027 58.4299 59.8889V62.2222C58.4299 62.7083 58.1382 63.0972 57.6521 63.1944C57.2632 63.0972 56.8743 62.7083 56.8743 62.2222V59.8889C55.9993 59.4027 55.416 58.4305 55.416 57.3611C55.416 56 56.3882 54.8333 57.6521 54.5416C58.916 54.8333 59.8882 56 59.8882 57.3611Z" fill="#E3A846"/>
<path d="M56.3887 40.8334H60.2776V46.6667H56.3887V40.8334Z" fill="#636595"/>
<path d="M59.1109 44.7222H57.5553C56.8748 44.7222 56.3887 44.2361 56.3887 43.5556V40.0556C56.3887 39.375 56.8748 38.8889 57.5553 38.8889H59.1109C59.7914 38.8889 60.2776 39.375 60.2776 40.0556V43.5556C60.2776 44.2361 59.7914 44.7222 59.1109 44.7222Z" fill="#4B4D74"/>
</g>
<defs>
<clipPath id="clip0_7446_32525">
<rect width="70" height="70" fill="white"/>
</clipPath>
</defs>
</svg>
