<svg width="70" height="70" viewBox="0 0 70 70" fill="none" xmlns="http://www.w3.org/2000/svg">
<g clip-path="url(#clip0_7446_32806)">
<path d="M68.1525 46.6667C66.0136 53.375 61.833 59.1111 56.2914 63.1944C55.0275 64.1667 53.6664 65.0417 52.3053 65.7222C50.8469 66.5 49.2914 67.2778 47.6386 67.7639C47.1525 67.9583 46.7636 68.0555 46.2775 68.25C43.3608 69.2222 40.4442 69.7083 37.6247 69.9028C36.7497 70 35.8747 70 34.9997 70C31.4997 70 28.0969 69.5139 24.8886 68.5417C23.7219 68.25 22.6525 67.7639 21.583 67.375C20.2219 66.7917 18.8608 66.1111 17.5969 65.4306C17.4997 65.3333 17.3053 65.2361 17.208 65.2361C15.9442 64.4583 14.7775 63.6806 13.6108 62.8056C12.9303 62.3194 12.2497 61.7361 11.6664 61.1528C6.12471 56.0972 2.13859 49.3889 0.680261 41.8056C-0.389183 36.4583 -0.194739 30.5278 1.45804 24.5C3.40248 17.2083 7.87471 10.8889 13.9025 6.51389C15.8469 5.15278 17.8886 3.98611 20.1247 3.01389C21.9719 2.23611 23.7219 1.65278 25.5692 1.16667C28.7775 0.388889 31.9858 0 34.9997 0C42.8747 0 50.1664 2.625 56.0969 7.09722C67.3747 15.5556 73.3053 30.7222 68.1525 46.6667Z" fill="#CDD3DD"/>
<path d="M29.6534 0C28.1951 0 26.834 0.486111 25.6673 1.26389C24.5979 1.94444 23.7229 2.91667 23.0423 4.08333L22.7507 4.66667C22.0701 6.02778 21.6812 7.58333 21.6812 9.23611V20.4167H17.6951V57.3611H21.6812V67.375C20.3201 66.7917 18.959 66.1111 17.6951 65.4306C17.5979 65.3333 17.4034 65.2361 17.3062 65.2361C16.0423 64.4583 14.8757 63.6806 13.709 62.8056V9.13889C13.709 8.26389 13.8062 7.38889 14.0007 6.51389C14.9729 2.72222 18.084 0 21.6812 0H29.6534Z" fill="#454863"/>
<path d="M17.5977 57.3611H21.5838V67.375C20.2227 66.7916 18.8615 66.1111 17.5977 65.4305V57.3611Z" fill="#5B72B4"/>
<path d="M17.5977 50.5555H21.5838V60.5694C20.2227 59.9861 18.8615 59.3055 17.5977 58.625V50.5555Z" fill="#5B72B4"/>
<path d="M17.5977 19.4445H21.5838V62.2222C20.2227 59.7917 18.8615 56.9722 17.5977 53.7639V19.4445Z" fill="#5B72B4"/>
<path d="M22.6532 4.5694C21.9727 5.93051 21.5838 7.48606 21.5838 9.13884V20.4166H17.5977V8.84718C17.5977 7.87495 17.8893 6.99995 18.3754 6.3194C19.056 5.24995 20.1254 4.5694 21.3893 4.5694H22.6532Z" fill="#5B72B4"/>
<path d="M56.0972 7.09722C55.6111 4.76389 54.3472 2.72222 52.5972 1.45833C51.3333 0.486111 49.875 0 48.3195 0H29.6528C28.1944 0 26.8333 0.486111 25.6667 1.26389C24.5972 1.94444 23.7222 2.91667 23.0417 4.08333L22.75 4.66667H23.8194C24.8889 4.66667 25.6667 5.63889 25.6667 6.80556C25.6667 8.16667 26.6389 9.23611 27.8056 9.23611H42.1945C43.3611 9.23611 44.3333 8.16667 44.3333 6.80556C44.3333 5.63889 45.2083 4.66667 46.1806 4.66667H48.5139C50.6528 4.66667 52.3056 6.61111 52.3056 8.94445V65.8195C53.6667 65.0417 55.0278 64.1667 56.2917 63.2917V9.13889C56.2917 8.36111 56.1945 7.68056 56.0972 7.09722ZM30.9167 6.125C30.1389 6.125 29.5556 5.44444 29.5556 4.56944C29.5556 3.69444 30.1389 3.01389 30.9167 3.01389C31.6944 3.01389 32.2778 3.69444 32.2778 4.56944C32.2778 5.34722 31.6944 6.125 30.9167 6.125ZM38.9861 6.125H35C34.2222 6.125 33.6389 5.44444 33.6389 4.56944C33.6389 3.69444 34.2222 3.01389 35 3.01389H38.9861C39.7639 3.01389 40.3472 3.69444 40.3472 4.56944C40.25 5.34722 39.6667 6.125 38.9861 6.125Z" fill="#4B4D74"/>
<path d="M52.3062 8.84718V65.7222C50.3618 66.7916 48.4173 67.5694 46.2784 68.25C37.4312 70.9722 28.8757 70.3888 21.584 67.375V9.13884C21.584 7.48606 21.9729 5.93051 22.6534 4.5694H23.7229C24.7923 4.5694 25.5701 5.54162 25.5701 6.70829C25.5701 8.0694 26.5423 9.13884 27.709 9.13884H42.0979C43.2645 9.13884 44.2368 8.0694 44.2368 6.70829C44.2368 5.54162 45.1118 4.5694 46.084 4.5694H48.4173C50.5562 4.5694 52.3062 6.51384 52.3062 8.84718Z" fill="#6F8AC6"/>
<path d="M30.9158 6.12503C31.6675 6.12503 32.2769 5.42858 32.2769 4.56947C32.2769 3.71036 31.6675 3.01392 30.9158 3.01392C30.1641 3.01392 29.5547 3.71036 29.5547 4.56947C29.5547 5.42858 30.1641 6.12503 30.9158 6.12503Z" fill="#636595"/>
<path d="M40.2494 4.56947C40.2494 5.44447 39.666 6.12503 38.8882 6.12503H34.9021C34.1244 6.12503 33.541 5.44447 33.541 4.56947C33.541 3.69447 34.1244 3.01392 34.9021 3.01392H38.8882C39.666 3.01392 40.2494 3.69447 40.2494 4.56947Z" fill="#636595"/>
<path d="M44.1387 56.875H21.3887V54.4444C21.3887 53.375 22.2637 52.5 23.3331 52.5H42.1942C43.2637 52.5 44.1387 53.375 44.1387 54.4444V56.875Z" fill="#EBC852"/>
<path d="M21.3887 56.875H44.1387V59.3056C44.1387 60.375 43.2637 61.25 42.1942 61.25H23.3331C22.2637 61.25 21.3887 60.375 21.3887 59.3056V56.875Z" fill="#DF9845"/>
<path d="M44.1387 56.875H32.7637V54.4444C32.7637 53.375 33.6387 52.5 34.7081 52.5H42.1942C43.2637 52.5 44.1387 53.375 44.1387 54.4444V56.875Z" fill="#EBC852"/>
<path d="M36.2637 56.875H32.7637V54.4444C32.7637 53.375 33.6387 52.5 34.7081 52.5H36.2637V56.875Z" fill="#ECD586"/>
<path d="M29.2637 56.875H21.3887V54.4444C21.3887 53.375 22.2637 52.5 23.3331 52.5H29.2637V56.875ZM32.7637 56.875H44.1387V59.3056C44.1387 60.375 43.2637 61.25 42.1942 61.25H34.7081C33.6387 61.25 32.7637 60.375 32.7637 59.3056V56.875Z" fill="#E3A846"/>
<path d="M46.7637 48.125H24.0137V45.6944C24.0137 44.625 24.8887 43.75 25.9581 43.75H44.8192C45.8887 43.75 46.7637 44.625 46.7637 45.6944V48.125Z" fill="#EBC852"/>
<path d="M24.0137 48.125H46.7637V50.5556C46.7637 51.625 45.8887 52.5 44.8192 52.5H25.9581C24.8887 52.5 24.0137 51.625 24.0137 50.5556V48.125Z" fill="#DF9845"/>
<path d="M46.7637 48.125H35.3887V45.6944C35.3887 44.625 36.2637 43.75 37.3331 43.75H44.8192C45.8887 43.75 46.7637 44.625 46.7637 45.6944V48.125Z" fill="#EBC852"/>
<path d="M38.8887 48.125H35.3887V45.6944C35.3887 44.625 36.2637 43.75 37.3331 43.75H38.8887V48.125Z" fill="#ECD586"/>
<path d="M31.8887 48.125H24.0137V45.6944C24.0137 44.625 24.8887 43.75 25.9581 43.75H31.8887V48.125ZM35.3887 48.125H46.7637V50.5556C46.7637 51.625 45.8887 52.5 44.8192 52.5H37.3331C36.2637 52.5 35.3887 51.625 35.3887 50.5556V48.125Z" fill="#E3A846"/>
<path d="M49.6816 39.375H26.9316V36.9444C26.9316 35.875 27.8066 35 28.8761 35H47.7372C48.8066 35 49.6816 35.875 49.6816 36.9444V39.375Z" fill="#EBC852"/>
<path d="M26.9316 39.375H49.6816V41.8056C49.6816 42.875 48.8066 43.75 47.7372 43.75H28.8761C27.8066 43.75 26.9316 42.875 26.9316 41.8056V39.375Z" fill="#DF9845"/>
<path d="M49.6816 39.375H38.3066V36.9444C38.3066 35.875 39.1816 35 40.2511 35H47.7372C48.8066 35 49.6816 35.875 49.6816 36.9444V39.375Z" fill="#EBC852"/>
<path d="M41.8066 39.375H38.3066V36.9444C38.3066 35.875 39.1816 35 40.2511 35H41.8066V39.375Z" fill="#ECD586"/>
<path d="M34.8066 39.375H26.9316V36.9444C26.9316 35.875 27.8066 35 28.8761 35H34.8066V39.375ZM38.3066 39.375H49.6816V41.8056C49.6816 42.875 48.8066 43.75 47.7372 43.75H40.2511C39.1816 43.75 38.3066 42.875 38.3066 41.8056V39.375Z" fill="#E3A846"/>
<path d="M45.793 30.625H23.043V28.1944C23.043 27.125 23.918 26.25 24.9874 26.25H43.8485C44.918 26.25 45.793 27.125 45.793 28.1944V30.625Z" fill="#EBC852"/>
<path d="M23.043 30.625H45.793V33.0556C45.793 34.125 44.918 35 43.8485 35H24.9874C23.918 35 23.043 34.125 23.043 33.0556V30.625Z" fill="#DF9845"/>
<path d="M45.793 30.625H34.418V28.1944C34.418 27.125 35.293 26.25 36.3624 26.25H43.8485C44.918 26.25 45.793 27.125 45.793 28.1944V30.625Z" fill="#EBC852"/>
<path d="M37.918 30.625H34.418V28.1944C34.418 27.125 35.293 26.25 36.3624 26.25H37.918V30.625Z" fill="#ECD586"/>
<path d="M30.918 30.625H23.043V28.1944C23.043 27.125 23.918 26.25 24.9874 26.25H30.918V30.625ZM34.418 30.625H45.793V33.0556C45.793 34.125 44.918 35 43.8485 35H36.3624C35.293 35 34.418 34.125 34.418 33.0556V30.625Z" fill="#E3A846"/>
<path d="M47.6387 65.625H24.8887V63.1944C24.8887 62.125 25.7637 61.25 26.8331 61.25H45.6942C46.7637 61.25 47.6387 62.125 47.6387 63.1944V65.625Z" fill="#EBC852"/>
<path d="M47.6382 65.625V67.7639C47.1521 67.9583 46.7632 68.0556 46.2771 68.25C43.3605 69.2222 40.4438 69.7083 37.6244 69.9028C36.7494 70 35.8743 70 34.9993 70C31.4993 70 28.0966 69.5139 24.8882 68.5417C24.8882 68.3472 24.791 68.25 24.791 68.0556V65.625H47.6382Z" fill="#DF9845"/>
<path d="M47.6387 65.625H36.2637V63.1944C36.2637 62.125 37.1387 61.25 38.2081 61.25H45.6942C46.7637 61.25 47.6387 62.125 47.6387 63.1944V65.625Z" fill="#EBC852"/>
<path d="M39.7637 65.625H36.2637V63.1944C36.2637 62.125 37.1387 61.25 38.2081 61.25H39.7637V65.625Z" fill="#ECD586"/>
<path d="M32.7637 65.625H24.8887V63.1944C24.8887 62.125 25.7637 61.25 26.8331 61.25H32.7637V65.625ZM47.6387 65.625V67.7639C47.1526 67.9583 46.7637 68.0556 46.2776 68.25C43.3609 69.2222 40.4442 69.7083 37.6248 69.9028C36.847 69.6111 36.2637 68.9306 36.2637 68.0556V65.625H47.6387Z" fill="#E3A846"/>
</g>
<defs>
<clipPath id="clip0_7446_32806">
<rect width="70" height="70" fill="white"/>
</clipPath>
</defs>
</svg>
