<svg width="70" height="70" viewBox="0 0 70 70" fill="none" xmlns="http://www.w3.org/2000/svg">
<g clip-path="url(#clip0_7446_32849)">
<path d="M68.1525 46.6667C67.1803 49.5833 65.8192 52.3056 64.1664 54.8333C63.2914 56.0972 62.3191 57.3611 61.2497 58.5278C59.3053 60.7639 56.9719 62.7083 54.4441 64.3611C52.8886 65.4305 51.1386 66.3056 49.3886 67.0833C48.4164 67.5694 47.3469 67.8611 46.2775 68.25C42.3886 69.4167 38.6942 70 34.9997 70H34.8053C29.8469 70 25.1803 68.9306 20.9997 67.0833C19.7358 66.5 18.3747 65.8194 17.208 65.1389C15.2636 63.9722 13.3192 62.6111 11.6664 61.0556C10.5969 60.1806 9.62471 59.2083 8.74971 58.1389C7.68026 56.9722 6.70804 55.7083 5.83304 54.3472C3.30526 50.5556 1.55526 46.375 0.680261 41.8056C-0.389183 36.4583 -0.194739 30.5278 1.45804 24.5C2.43026 21.0972 3.88859 17.7917 5.83304 14.875C6.70804 13.5139 7.68026 12.25 8.74971 11.0833C11.8608 7.58333 15.7497 4.86111 20.2219 3.01389C20.3191 3.01389 20.4164 2.91667 20.5136 2.91667C22.9441 1.94444 25.3747 1.16667 27.8053 0.680556C30.2358 0.194444 32.6664 0 34.9997 0C39.958 0 44.7219 1.06944 48.9997 2.91667C53.7636 4.95833 57.8469 8.06944 61.2497 11.8611C62.3191 13.0278 63.2914 14.2917 64.1664 15.6528C69.8053 24.1111 71.8469 35.1944 68.1525 46.6667Z" fill="#CDD3DD"/>
<path d="M59.3062 0H10.6951C7.97287 0 5.83398 2.13889 5.83398 4.86111V54.3472C6.70898 55.7083 7.68121 56.9722 8.75065 58.1389C9.62565 59.2083 10.5979 60.1806 11.6673 61.0556C13.4173 62.6111 15.2645 63.9722 17.209 65.1389C18.4729 65.8194 19.7368 66.5 21.0007 67.0833C25.1812 68.9306 29.9451 70 34.8062 70H35.0006C38.6951 70 42.3895 69.4167 46.2784 68.25C47.3479 67.9583 48.4173 67.5694 49.3895 67.0833C51.1395 66.3056 52.7923 65.4305 54.4451 64.3611C56.9729 62.7083 59.3062 60.7639 61.2506 58.5278C62.3201 57.3611 63.2923 56.0972 64.1673 54.8333V4.86111C64.1673 2.13889 62.0284 0 59.3062 0ZM53.2784 2.91667H51.5284V1.94444C51.5284 1.45833 51.334 1.06944 51.0423 0.680556L53.2784 2.91667Z" fill="url(#paint0_linear_7446_32849)"/>
<path d="M64.1667 6.99999V54.8333C63.2917 56.0972 62.3194 57.3611 61.25 58.5278C59.3056 60.7639 56.9722 62.7083 54.4444 64.3611C52.8889 65.4305 51.1389 66.3055 49.3889 67.0833L43.5556 61.25L32.8611 50.5555L16.625 34.2222L47.9306 2.91665H51.5278V1.94443C51.5278 1.45832 51.3333 1.06943 51.0417 0.680542L53.2778 2.91665H59.3056C59.7917 2.91665 60.1806 3.1111 60.5694 3.40276L60.8611 3.69443L64.1667 6.99999Z" fill="#B0C154"/>
<path d="M61.25 4.86113V58.625C59.3056 60.8611 56.9722 62.8056 54.4444 64.4584C52.8889 65.5278 51.1389 66.4028 49.3889 67.1806H21C19.7361 66.5972 18.375 65.9167 17.2083 65.2361C15.2639 64.0695 13.3194 62.7084 11.6667 61.1528C10.5972 60.2778 9.625 59.3056 8.75 58.2361V4.86113C8.75 3.79169 9.625 2.91669 10.6944 2.91669H59.3056C59.7917 2.91669 60.1806 3.11113 60.5694 3.4028L60.8611 3.69446C61.0556 3.98613 61.25 4.37502 61.25 4.86113Z" fill="url(#paint1_linear_7446_32849)"/>
<path d="M61.347 58.5278C61.2498 58.5278 61.2498 58.625 61.347 58.5278C59.3053 60.7639 56.972 62.8056 54.5414 64.3611C53.6664 64.9445 52.7914 65.4306 51.9164 65.9167H38.8887L53.7637 51.0417L53.8609 51.1389L61.347 58.5278Z" fill="url(#paint2_linear_7446_32849)"/>
<path d="M51.5271 2.91665V1.94443C51.5271 1.45832 51.3327 1.06943 51.041 0.680542L53.2771 2.91665H51.5271Z" fill="url(#paint3_linear_7446_32849)"/>
<path d="M61.2493 10.8889V50.2639L21.6799 10.5972C21.5827 10.5972 21.5827 10.5 21.4855 10.4028C20.9021 9.72222 20.5132 8.94444 20.416 8.06944L22.3605 6.125L22.6521 5.83333L28.4855 0H49.5827C50.0688 0 50.4577 0.194444 50.8466 0.486111L51.1382 0.777778C51.3327 1.06944 51.5271 1.45833 51.5271 1.94444V2.91667H53.2771L61.2493 10.8889Z" fill="url(#paint4_linear_7446_32849)"/>
<path d="M49.5827 0V7.77778C49.5827 9.91667 47.8327 11.6667 45.6938 11.6667H24.3049C23.2355 11.6667 22.3605 11.2778 21.6799 10.5972C21.5827 10.5972 21.5827 10.5 21.4855 10.4028C20.9021 9.72222 20.5132 8.94445 20.416 8.06945V0H22.3605V7.77778C22.3605 8.84722 23.2355 9.72222 24.3049 9.72222H45.6938C46.7632 9.72222 47.6382 8.84722 47.6382 7.77778V0H49.5827Z" fill="#ECCC61"/>
<path d="M51.5282 1.94444V3.88889C51.5282 4.95833 50.6532 5.83333 49.5838 5.83333H20.4171C19.3477 5.83333 18.4727 4.95833 18.4727 3.88889V1.94444C18.4727 0.875 19.3477 0 20.4171 0H49.5838C50.0699 0 50.4588 0.194444 50.8476 0.486111L51.1393 0.777778C51.3338 1.06944 51.5282 1.45833 51.5282 1.94444Z" fill="url(#paint5_linear_7446_32849)"/>
<path d="M20.4173 25.2778H15.5562C14.9729 25.2778 14.584 24.8889 14.584 24.3056V19.4445C14.584 18.8611 14.9729 18.4722 15.5562 18.4722H20.4173C21.0007 18.4722 21.3895 18.8611 21.3895 19.4445V24.3056C21.3895 24.8889 21.0007 25.2778 20.4173 25.2778ZM52.0145 20.4167H28.6812C27.9034 20.4167 27.2229 21.0972 27.2229 21.875C27.2229 22.6528 27.9034 23.3333 28.6812 23.3333H52.0145C52.7923 23.3333 53.4729 22.6528 53.4729 21.875C53.4729 21.0972 52.7923 20.4167 52.0145 20.4167ZM20.4173 34.0278H15.5562C14.9729 34.0278 14.584 33.6389 14.584 33.0556V28.1945C14.584 27.6111 14.9729 27.2222 15.5562 27.2222H20.4173C21.0007 27.2222 21.3895 27.6111 21.3895 28.1945V33.0556C21.3895 33.6389 21.0007 34.0278 20.4173 34.0278ZM53.959 29.1667H28.6812C27.9034 29.1667 27.2229 29.8472 27.2229 30.625C27.2229 31.4028 27.9034 32.0833 28.6812 32.0833H53.959C54.7368 32.0833 55.4173 31.4028 55.4173 30.625C55.4173 29.8472 54.7368 29.1667 53.959 29.1667ZM20.4173 42.7778H15.5562C14.9729 42.7778 14.584 42.3889 14.584 41.8056V36.9445C14.584 36.3611 14.9729 35.9722 15.5562 35.9722H20.4173C21.0007 35.9722 21.3895 36.3611 21.3895 36.9445V41.8056C21.3895 42.3889 21.0007 42.7778 20.4173 42.7778ZM49.0979 37.9167H28.6812C27.9034 37.9167 27.2229 38.5972 27.2229 39.375C27.2229 40.1528 27.9034 40.8333 28.6812 40.8333H49.0979C49.8757 40.8333 50.5562 40.1528 50.5562 39.375C50.5562 38.5972 49.8757 37.9167 49.0979 37.9167Z" fill="#464866"/>
<path d="M17.5 21.3889L19.4444 23.3333L24.3056 18.4722" stroke="url(#paint6_linear_7446_32849)" stroke-width="3" stroke-miterlimit="10" stroke-linecap="round" stroke-linejoin="round"/>
<path d="M17.5 30.1389L19.4444 32.0833L24.3056 27.2222" stroke="url(#paint7_linear_7446_32849)" stroke-width="3" stroke-miterlimit="10" stroke-linecap="round" stroke-linejoin="round"/>
<path d="M54.4451 52.5V64.4583C52.8895 65.5278 51.1395 66.4028 49.3895 67.1805H21.0007C19.7368 66.5972 18.3757 65.9167 17.209 65.2361C15.2645 64.0694 13.3201 62.7083 11.6673 61.1528C10.5979 60.2778 9.62565 59.3055 8.75065 58.2361C7.68121 57.0694 6.70898 55.8055 5.83398 54.4444V52.5C5.83398 51.4305 6.70898 50.5555 7.77843 50.5555H52.5007C52.9868 50.5555 53.4729 50.75 53.7645 51.0417C53.7645 51.0417 53.8618 51.0417 53.8618 51.1389C54.2507 51.5278 54.4451 52.0139 54.4451 52.5Z" fill="url(#paint8_linear_7446_32849)"/>
</g>
<defs>
<linearGradient id="paint0_linear_7446_32849" x1="7.29679" y1="1.38639" x2="62.915" y2="57.0046" gradientUnits="userSpaceOnUse">
<stop stop-color="#DC8E45"/>
<stop offset="0.3595" stop-color="#D67253"/>
<stop offset="0.7915" stop-color="#D15961"/>
<stop offset="1" stop-color="#D04F66"/>
</linearGradient>
<linearGradient id="paint1_linear_7446_32849" x1="8.32796" y1="4.48177" x2="61.8825" y2="58.0363" gradientUnits="userSpaceOnUse">
<stop stop-color="white"/>
<stop offset="0.4397" stop-color="#F9FAFD"/>
<stop offset="0.8616" stop-color="#EBEEF8"/>
<stop offset="1" stop-color="#E6E9F6"/>
</linearGradient>
<linearGradient id="paint2_linear_7446_32849" x1="46.3463" y1="58.4889" x2="53.888" y2="66.0306" gradientUnits="userSpaceOnUse">
<stop stop-color="#DCDEE5" stop-opacity="0.5"/>
<stop offset="1" stop-color="#E6E9F6" stop-opacity="0.6"/>
</linearGradient>
<linearGradient id="paint3_linear_7446_32849" x1="50.6406" y1="1.14964" x2="52.8475" y2="3.35658" gradientUnits="userSpaceOnUse">
<stop stop-color="#A64E45"/>
<stop offset="0.0798442" stop-color="#A24F49"/>
<stop offset="0.5316" stop-color="#885364"/>
<stop offset="0.8483" stop-color="#7A5376"/>
<stop offset="1" stop-color="#75537D"/>
</linearGradient>
<linearGradient id="paint4_linear_7446_32849" x1="40.8431" y1="50.225" x2="40.843" y2="-2.75666e-05" gradientUnits="userSpaceOnUse">
<stop stop-color="white" stop-opacity="0"/>
<stop offset="1" stop-color="#DCDEE5"/>
</linearGradient>
<linearGradient id="paint5_linear_7446_32849" x1="35.001" y1="5.83333" x2="35.001" y2="0" gradientUnits="userSpaceOnUse">
<stop stop-color="#1F2234"/>
<stop offset="0.2048" stop-color="#2C2F43"/>
<stop offset="0.4239" stop-color="#383B52"/>
<stop offset="0.6346" stop-color="#40435D"/>
<stop offset="0.8309" stop-color="#454764"/>
<stop offset="0.9988" stop-color="#464866"/>
</linearGradient>
<linearGradient id="paint6_linear_7446_32849" x1="16.0423" y1="20.9028" x2="25.7645" y2="20.9028" gradientUnits="userSpaceOnUse">
<stop stop-color="#A3CFB9"/>
<stop offset="1" stop-color="#79C0C0"/>
</linearGradient>
<linearGradient id="paint7_linear_7446_32849" x1="16.0423" y1="29.6528" x2="25.7645" y2="29.6528" gradientUnits="userSpaceOnUse">
<stop stop-color="#A3CFB9"/>
<stop offset="1" stop-color="#79C0C0"/>
</linearGradient>
<linearGradient id="paint8_linear_7446_32849" x1="30.1401" y1="50.5555" x2="30.1401" y2="67.0833" gradientUnits="userSpaceOnUse">
<stop stop-color="white"/>
<stop offset="0.3152" stop-color="#FAFAFD"/>
<stop offset="0.5463" stop-color="#EEEFF8"/>
<stop offset="0.7506" stop-color="#DDE0F2"/>
<stop offset="0.9382" stop-color="#C6CCE8"/>
<stop offset="1" stop-color="#BEC4E5"/>
</linearGradient>
<clipPath id="clip0_7446_32849">
<rect width="70" height="70" fill="white"/>
</clipPath>
</defs>
</svg>
