<svg width="70" height="70" viewBox="0 0 70 70" fill="none" xmlns="http://www.w3.org/2000/svg">
<g clip-path="url(#clip0_7446_32866)">
<path d="M68.1525 46.6666C66.4025 52.0139 63.2914 56.875 59.3053 60.6666C55.6108 64.1666 51.2358 66.7916 46.2775 68.3472C38.1108 70.7777 30.2358 70.4861 23.333 68.0555C21.1941 67.2777 19.1525 66.3055 17.208 65.1389C15.2636 63.9722 13.3191 62.6111 11.6664 61.0555C11.3747 60.7639 10.9858 60.4722 10.6941 60.1805C5.63859 55.3194 2.04137 48.9027 0.680261 41.8055C-0.389183 36.4583 -0.194739 30.5277 1.45804 24.5C4.08304 14.875 10.9858 6.90275 20.2219 3.11108C49.583 -9.13892 77.583 17.3055 68.1525 46.6666Z" fill="#CDD3DD"/>
<path d="M59.3064 31.1111V60.5695C55.612 64.0695 51.237 66.6945 46.2786 68.25C38.112 70.7778 30.237 70.4861 23.3342 68.0556C21.1953 67.2778 19.1536 66.3056 17.2092 65.1389C15.2648 63.9722 13.3203 62.6111 11.6675 61.0556C11.3759 60.7639 10.987 60.4722 10.6953 60.1806V31.1111C10.6953 29.4583 11.9592 28.1945 13.612 28.1945H56.3898C58.0425 28.1945 59.3064 29.4583 59.3064 31.1111Z" fill="#4B4D74"/>
<path d="M59.3062 31.1111V60.5695C55.6118 64.0695 51.2368 66.6945 46.2784 68.25C38.1118 70.7778 30.2368 70.4861 23.334 68.0556V31.1111C23.334 29.4583 24.5979 28.1945 26.2507 28.1945H56.3895C58.0423 28.1945 59.3062 29.4583 59.3062 31.1111Z" fill="#636595"/>
<path d="M53.4718 18.4722V28.1944H46.6662V18.4722C46.6662 15.2639 45.4023 12.3472 43.2635 10.2083C41.1246 8.06944 38.2079 6.80556 34.9996 6.80556C28.5829 6.80556 23.3329 12.0556 23.3329 18.4722V28.1944H16.5273V18.4722C16.5273 8.26389 24.8885 0 34.9996 0C40.0551 0 44.7218 2.04167 48.0274 5.44444C51.4301 8.75 53.4718 13.4167 53.4718 18.4722Z" fill="#85A1D5"/>
<path d="M34.5135 6.80556H34.9996C28.5829 6.80556 23.3329 12.0556 23.3329 18.4722V28.1944H16.5273V18.4722C16.5273 8.55556 24.4023 0.486111 34.1246 0C33.3468 0.0972222 32.569 0.486111 32.0829 0.972222C31.4996 1.55556 31.1107 2.43056 31.1107 3.40278C31.1107 5.25 32.6662 6.80556 34.5135 6.80556Z" fill="#6F8AC6"/>
<path d="M17.987 52.5H10.6953V57.3611H17.987C19.3481 57.3611 20.4175 56.2917 20.4175 54.9306C20.4175 53.5694 19.3481 52.5 17.987 52.5Z" fill="#3D4055"/>
<path d="M17.9852 52.5C16.6241 52.5 15.5547 53.5694 15.5547 54.9306C15.5547 56.2917 16.6241 57.3611 17.9852 57.3611C19.3464 57.3611 20.4158 56.2917 20.4158 54.9306C20.4158 53.5694 19.3464 52.5 17.9852 52.5Z" fill="#464A67"/>
<path d="M17.987 43.75H10.6953V48.6111H17.987C19.3481 48.6111 20.4175 47.5417 20.4175 46.1806C20.4175 44.8194 19.3481 43.75 17.987 43.75Z" fill="#3D4055"/>
<path d="M17.9852 43.75C16.6241 43.75 15.5547 44.8194 15.5547 46.1806C15.5547 47.5417 16.6241 48.6111 17.9852 48.6111C19.3464 48.6111 20.4158 47.5417 20.4158 46.1806C20.4158 44.8194 19.3464 43.75 17.9852 43.75Z" fill="#464A67"/>
<path d="M17.987 35H10.6953V39.8611H17.987C19.3481 39.8611 20.4175 38.7917 20.4175 37.4306C20.4175 36.0694 19.3481 35 17.987 35Z" fill="#3D4055"/>
<path d="M17.9852 35C16.6241 35 15.5547 36.0694 15.5547 37.4306C15.5547 38.7917 16.6241 39.8611 17.9852 39.8611C19.3464 39.8611 20.4158 38.7917 20.4158 37.4306C20.4158 36.0694 19.3464 35 17.9852 35Z" fill="#464A67"/>
<path d="M52.0145 52.5H59.3062V57.3611H52.0145C50.6534 57.3611 49.584 56.2917 49.584 54.9306C49.584 53.5694 50.6534 52.5 52.0145 52.5Z" fill="#3D4055"/>
<path d="M52.0145 52.5C53.3757 52.5 54.4451 53.5694 54.4451 54.9306C54.4451 56.2917 53.3757 57.3611 52.0145 57.3611C50.6534 57.3611 49.584 56.2917 49.584 54.9306C49.584 53.5694 50.6534 52.5 52.0145 52.5Z" fill="#464A67"/>
<path d="M52.0145 43.75H59.3062V48.6111H52.0145C50.6534 48.6111 49.584 47.5417 49.584 46.1806C49.584 44.8194 50.6534 43.75 52.0145 43.75Z" fill="#3D4055"/>
<path d="M52.0145 43.75C53.3757 43.75 54.4451 44.8194 54.4451 46.1806C54.4451 47.5417 53.3757 48.6111 52.0145 48.6111C50.6534 48.6111 49.584 47.5417 49.584 46.1806C49.584 44.8194 50.6534 43.75 52.0145 43.75Z" fill="#464A67"/>
<path d="M52.0145 35H59.3062V39.8611H52.0145C50.6534 39.8611 49.584 38.7917 49.584 37.4306C49.584 36.0694 50.6534 35 52.0145 35Z" fill="#3D4055"/>
<path d="M52.0145 35C53.3757 35 54.4451 36.0694 54.4451 37.4306C54.4451 38.7917 53.3757 39.8611 52.0145 39.8611C50.6534 39.8611 49.584 38.7917 49.584 37.4306C49.584 36.0694 50.6534 35 52.0145 35Z" fill="#464A67"/>
</g>
<defs>
<clipPath id="clip0_7446_32866">
<rect width="70" height="70" fill="white"/>
</clipPath>
</defs>
</svg>
