<svg width="70" height="70" viewBox="0 0 70 70" fill="none" xmlns="http://www.w3.org/2000/svg">
<path d="M66.2705 43.3847C64.6387 48.3707 61.7377 52.9034 58.0209 56.439C54.576 59.7025 50.4965 62.1502 45.8731 63.6007C38.2581 65.9577 30.9151 65.6858 24.4786 63.4194C22.4842 62.6942 20.5805 61.7876 18.7674 60.6997C16.9543 59.6119 15.1412 58.3427 13.6001 56.8923C13.3281 56.6203 12.9655 56.3483 12.6935 56.0764C7.97946 51.5436 4.62523 45.5604 3.35607 38.9426C2.35887 33.9566 2.54017 28.4267 4.08131 22.8061C6.52898 13.8312 12.9655 6.39754 21.5777 2.862C48.9554 -8.5605 75.064 16.0976 66.2705 43.3847Z" fill="#CDD3DD"/>
<path d="M65.4174 46.2283H21.0932C18.5604 46.2283 16.5703 44.2325 16.5703 41.6923V15.3834C16.5703 12.8433 18.5604 10.8474 21.0932 10.8474H65.4174C67.9502 10.8474 69.9403 12.8433 69.9403 15.3834V41.6923C69.9403 44.2325 67.9502 46.2283 65.4174 46.2283Z" fill="#B3D1E4"/>
<path d="M65.4717 46.2283H28.3546C25.8198 46.2283 23.8281 44.2325 23.8281 41.6923V15.3834C23.8281 12.8433 25.8198 10.8474 28.3546 10.8474H65.4717C68.0065 10.8474 69.9981 12.8433 69.9981 15.3834V41.6923C69.9981 44.2325 68.0065 46.2283 65.4717 46.2283Z" fill="#D1E2E9"/>
<path d="M61.8496 17.1979H69.9973V25.3627H61.8496V17.1979Z" fill="#474B6A"/>
<path d="M58.9694 50.7643H14.5165C11.9763 50.7643 9.98047 48.7685 9.98047 46.2283V19.9194C9.98047 17.3793 11.9763 15.3834 14.5165 15.3834H58.9694C61.5096 15.3834 63.5054 17.3793 63.5054 19.9194V46.2283C63.5054 48.7685 61.5096 50.7643 58.9694 50.7643Z" fill="#474B6A"/>
<path d="M58.9696 50.7643H21.7743C19.2341 50.7643 17.2383 48.7685 17.2383 46.2283V19.9194C17.2383 17.3793 19.2341 15.3834 21.7743 15.3834H58.9696C61.5098 15.3834 63.5056 17.3793 63.5056 19.9194V46.2283C63.5056 48.7685 61.5098 50.7643 58.9696 50.7643Z" fill="#4B4E75"/>
<path d="M23.5877 22.6412V26.27C23.5877 27.8122 22.4083 28.9916 20.866 28.9916H17.2372C15.695 28.9916 14.5156 27.8122 14.5156 26.27V22.6412C14.5156 21.0989 15.695 19.9196 17.2372 19.9196H20.866C22.4083 19.9196 23.5877 21.0989 23.5877 22.6412Z" fill="#DA8645"/>
<path d="M23.5868 22.6412V24.4556H19.0508V19.9196H20.8652C22.4074 19.9196 23.5868 21.0989 23.5868 22.6412Z" fill="#EBC953"/>
<path d="M23.5868 24.4556V26.27C23.5868 27.8122 22.4074 28.9916 20.8652 28.9916H19.0508V24.4556H23.5868Z" fill="#E3AA46"/>
<path d="M58.0631 27.1771H45.3623C44.818 27.1771 44.4551 27.54 44.4551 28.0843C44.4551 28.6286 44.818 28.9915 45.3623 28.9915H58.0631C58.6074 28.9915 58.9703 28.6286 58.9703 28.0843C58.9703 27.54 58.6074 27.1771 58.0631 27.1771Z" fill="#636594"/>
<path d="M58.0643 27.1771H53.5283C52.984 27.1771 52.6211 27.54 52.6211 28.0843C52.6211 28.6286 52.984 28.9915 53.5283 28.9915H58.0643C58.6086 28.9915 58.9715 28.6286 58.9715 28.0843C58.9715 27.54 58.6086 27.1771 58.0643 27.1771Z" fill="#7B7FB1"/>
<path d="M58.0631 23.5483H45.3623C44.818 23.5483 44.4551 23.9112 44.4551 24.4555C44.4551 24.9999 44.818 25.3627 45.3623 25.3627H58.0631C58.6074 25.3627 58.9703 24.9999 58.9703 24.4555C58.9703 23.9112 58.6074 23.5483 58.0631 23.5483Z" fill="#636594"/>
<path d="M58.0643 23.5483H53.5283C52.984 23.5483 52.6211 23.9112 52.6211 24.4555C52.6211 24.9999 52.984 25.3627 53.5283 25.3627H58.0643C58.6086 25.3627 58.9715 24.9999 58.9715 24.4555C58.9715 23.9112 58.6086 23.5483 58.0643 23.5483Z" fill="#7B7FB1"/>
<path d="M54.0714 19.9196H45.3623C44.818 19.9196 44.4551 20.2824 44.4551 20.8268C44.4551 21.3711 44.818 21.734 45.3623 21.734H54.0714C54.6157 21.734 54.9786 21.3711 54.9786 20.8268C54.9786 20.2824 54.6157 19.9196 54.0714 19.9196Z" fill="#636594"/>
<path d="M55.3427 19.9196H53.5283C52.984 19.9196 52.6211 20.2824 52.6211 20.8268C52.6211 21.3711 52.984 21.734 53.5283 21.734H55.3427C55.887 21.734 56.2499 21.3711 56.2499 20.8268C56.2499 20.2824 55.887 19.9196 55.3427 19.9196Z" fill="#7B7FB1"/>
<path d="M54.4325 37.1564C53.4346 37.1564 52.4367 37.5193 51.7109 38.0636C52.7996 38.8801 53.5253 40.1501 53.5253 41.6924C53.5253 42.0553 53.4346 42.4181 53.3439 42.781C53.0717 43.779 52.5274 44.6862 51.7109 45.2305C52.4367 45.7748 53.4346 46.1377 54.4325 46.1377C56.5191 46.1377 58.3335 44.6862 58.7871 42.781C58.8778 42.4181 58.9686 42.0553 58.9686 41.6017C58.9686 39.2429 56.882 37.1564 54.4325 37.1564Z" fill="#E3AA46"/>
<path d="M58.9686 41.6923C58.9686 42.0552 58.8778 42.5088 58.7871 42.8717C58.0614 43.416 57.0634 43.7789 56.0655 43.7789C55.0676 43.7789 54.0697 43.416 53.3439 42.8717C53.4346 42.5088 53.5253 42.1459 53.5253 41.783C53.5253 40.3315 52.7996 38.9707 51.7109 38.1542C52.4367 37.6099 53.4346 37.247 54.4325 37.247C56.882 37.1563 58.9686 39.2428 58.9686 41.6923Z" fill="#EBC953"/>
<path d="M53.3445 42.8717C53.0723 43.8696 52.528 44.7768 51.7115 45.3212C51.1672 44.9583 50.7136 44.414 50.4414 43.7789H50.6228C51.6208 43.7789 52.528 43.416 53.3445 42.8717Z" fill="#D66D44"/>
<path d="M51.7107 45.3212C50.985 45.8655 49.9871 46.2284 48.9891 46.2284C46.449 46.2284 44.4531 44.2325 44.4531 41.6924C44.4531 40.2409 45.1789 38.8801 46.2675 38.0636C46.9933 37.5193 47.9912 37.1564 48.9891 37.1564C49.9871 37.1564 50.985 37.5193 51.7107 38.0636C50.6221 38.8801 49.8963 40.1501 49.8963 41.6924C49.8963 42.4181 50.0778 43.1439 50.3499 43.7789C50.7128 44.414 51.1664 44.9583 51.7107 45.3212Z" fill="#B75051"/>
<path d="M51.7109 38.1543C50.6222 38.9708 49.8965 40.2409 49.8965 41.7831C49.8965 42.5089 50.0779 43.2346 50.3501 43.8697H50.5315C51.5294 43.8697 52.5274 43.5068 53.2531 42.9625C53.3439 42.5996 53.4346 42.2367 53.4346 41.8738C53.4346 40.2409 52.7995 38.9708 51.7109 38.1543Z" fill="#DA8645"/>
<path d="M49.8971 41.6924C49.8971 42.4181 50.0785 43.1439 50.3507 43.7789C47.9012 43.6882 45.9961 41.6924 45.9961 39.2429C45.9961 38.8801 46.0868 38.4265 46.1775 38.0636C46.9033 37.5193 47.9012 37.1564 48.8991 37.1564C49.8971 37.1564 50.895 37.5193 51.6208 38.0636C50.6228 38.9708 49.8971 40.2409 49.8971 41.6924Z" fill="#D25862"/>
<path d="M28.5705 64.1099C36.4424 60.857 40.1869 51.8385 36.9339 43.9665C33.681 36.0946 24.6625 32.3501 16.7905 35.6031C8.91858 38.856 5.17414 47.8745 8.42708 55.7465C11.68 63.6184 20.6985 67.3628 28.5705 64.1099Z" fill="#EBC852"/>
<path d="M27.3232 61.0916C33.5281 58.5275 36.4796 51.4188 33.9155 45.2138C31.3514 39.0089 24.2427 36.0574 18.0378 38.6215C11.8328 41.1856 8.88134 48.2943 11.4454 54.4992C14.0095 60.7042 21.1182 63.6557 27.3232 61.0916Z" fill="#E3A846"/>
<path d="M35.5623 56.1168C34.5644 56.5704 33.4757 56.8426 32.4778 57.024C24.8573 58.5663 16.9646 54.4839 13.8802 47.0448C13.3358 45.684 12.9729 44.3232 12.7915 42.8717C12.6101 41.2387 12.6101 39.515 12.8822 37.8821C7.80189 42.0552 5.89677 49.2221 8.52766 55.6632C11.7936 63.5559 20.7749 67.2754 28.6676 64.0095C32.75 62.2858 35.7437 59.1106 37.1953 55.3004C36.5602 55.6632 36.0159 55.8447 35.5623 56.1168Z" fill="#E3A846"/>
<path d="M32.3858 57.0239C31.1157 58.7476 29.392 60.1084 27.3055 61.0156C21.1365 63.5558 14.0603 60.6527 11.5202 54.4837C9.88719 50.4921 10.4315 46.2282 12.6995 42.9623C12.881 44.3231 13.2438 45.7746 13.7882 47.1354C16.8727 54.5745 24.7653 58.5662 32.3858 57.0239Z" fill="#DF9845"/>
<path d="M15.4224 65.2796C23.94 65.2796 30.8449 58.3747 30.8449 49.8571C30.8449 41.3396 23.94 34.4347 15.4224 34.4347C6.90486 34.4347 0 41.3396 0 49.8571C0 58.3747 6.90486 65.2796 15.4224 65.2796Z" fill="#EBC852"/>
<path d="M15.4221 62.0137C22.136 62.0137 27.5787 56.5711 27.5787 49.8572C27.5787 43.1433 22.136 37.7007 15.4221 37.7007C8.70828 37.7007 3.26562 43.1433 3.26562 49.8572C3.26562 56.5711 8.70828 62.0137 15.4221 62.0137Z" fill="#E3A846"/>
<path d="M24.9481 60.5621C23.8594 60.5621 22.7708 60.4714 21.6821 60.2899C14.0616 58.7477 8.25554 52.0344 8.25554 43.9603C8.25554 42.5087 8.43698 41.0572 8.79986 39.6964C9.25347 38.0634 9.88851 36.5212 10.7957 35.1604C4.53601 37.0655 0 42.9623 0 49.8571C0 58.3848 6.89474 65.2795 15.4224 65.2795C19.8677 65.2795 23.7687 63.4651 26.581 60.4713C26.0367 60.4713 25.4924 60.5621 24.9481 60.5621Z" fill="#E3A846"/>
<path d="M21.6818 60.1992C19.8674 61.2878 17.6901 61.9229 15.4221 61.9229C8.70884 61.9229 3.26562 56.4797 3.26562 49.7664C3.26562 45.5025 5.44291 41.783 8.79956 39.6057C8.43668 40.9665 8.25524 42.418 8.25524 43.8696C8.34596 52.0344 14.0613 58.7477 21.6818 60.1992Z" fill="#DF9845"/>
</svg>
