<svg width="20" height="20" viewBox="0 0 20 20" fill="none" xmlns="http://www.w3.org/2000/svg">
<path d="M19.4752 15.4299L18.6983 14.9124C20.4504 11.8308 20.4308 8.04985 18.647 4.9866C16.8631 1.92334 13.5844 0.0402619 10.0396 0.0431912C9.85552 0.0431912 9.70632 0.192388 9.70632 0.376462C9.70632 0.560536 9.85552 0.709733 10.0396 0.709733C13.3382 0.707272 16.3905 2.45518 18.0579 5.30147C19.7252 8.14773 19.7571 11.6649 18.1418 14.541L15.4258 12.7303C14.9121 12.3906 14.2236 12.5024 13.8437 12.9872L12.6659 14.5034C12.5142 14.703 12.2389 14.761 12.0197 14.6393L11.7954 14.5157C11.0518 14.1104 10.1266 13.6058 8.26255 11.7411C6.39849 9.87638 5.8929 8.9505 5.48761 8.20831L5.36462 7.984C5.24116 7.76482 5.29803 7.48818 5.49792 7.33543L7.01301 6.15662C7.49778 5.77679 7.60976 5.08838 7.27032 4.57451L4.57072 0.52644C4.2228 0.00319713 3.52486 -0.153889 2.9863 0.169852L1.29355 1.18669C0.761671 1.49938 0.371456 2.00579 0.204723 2.5998C-0.404835 4.8208 0.0537292 8.65391 5.70024 14.3011C8.15987 16.7607 10.2746 18.2338 12.0626 19.067C9.31052 19.6889 6.42505 19.0233 4.22339 17.2588C2.02172 15.4944 0.743588 12.8232 0.75097 10.0018C0.75097 9.81768 0.601773 9.66848 0.417699 9.66848C0.233625 9.66848 0.0844281 9.81768 0.0844281 10.0018C0.0895836 15.4983 4.5431 19.9533 10.0396 19.9603C11.0694 19.9606 12.0928 19.7994 13.0725 19.4823C13.9564 19.8125 14.8906 19.9877 15.8341 20.0003C16.363 20.0025 16.8899 19.9337 17.4005 19.7957C17.9947 19.6291 18.5012 19.2389 18.8136 18.7068L19.8315 17.0151C20.1557 16.4764 19.9987 15.778 19.4752 15.4299ZM19.2585 16.6721L18.243 18.3648C18.0185 18.7495 17.6537 19.0322 17.2252 19.1537C16.2557 19.4203 14.9425 19.4536 13.2551 18.8454C13.2283 18.8304 13.1996 18.8192 13.1698 18.8121C11.3034 18.1192 8.98604 16.6424 6.17079 13.8282C0.751634 8.40929 0.284711 4.82682 0.847635 2.77614C0.969336 2.34777 1.25203 1.98302 1.6365 1.75829L3.32926 0.742775C3.56294 0.602171 3.86586 0.670325 4.01681 0.8974L5.48328 3.09907L6.71411 4.94512C6.86151 5.16802 6.81308 5.46676 6.6028 5.6317L5.08736 6.81051C4.62618 7.16315 4.49448 7.80122 4.77842 8.30763L4.89875 8.52627C5.32471 9.30748 5.85428 10.2793 7.78766 12.2124C9.72105 14.1454 10.6926 14.675 11.4734 15.101L11.6924 15.2216C12.1988 15.5055 12.8369 15.3738 13.1895 14.9127L14.3683 13.3972C14.5333 13.1871 14.8319 13.1387 15.0549 13.2859L19.1026 15.9855C19.3297 16.1359 19.3984 16.4383 19.2585 16.6721Z" fill="#FF8900"/>
</svg>
