<svg width="40" height="40" viewBox="0 0 40 40" fill="none" xmlns="http://www.w3.org/2000/svg">
<circle cx="20" cy="20" r="20" fill="#346DA6"/>
<path d="M10 19.5C9.72386 19.5 9.5 19.7239 9.5 20C9.5 20.2761 9.72386 20.5 10 20.5V19.5ZM29.3536 20.3536C29.5488 20.1583 29.5488 19.8417 29.3536 19.6464L26.1716 16.4645C25.9763 16.2692 25.6597 16.2692 25.4645 16.4645C25.2692 16.6597 25.2692 16.9763 25.4645 17.1716L28.2929 20L25.4645 22.8284C25.2692 23.0237 25.2692 23.3403 25.4645 23.5355C25.6597 23.7308 25.9763 23.7308 26.1716 23.5355L29.3536 20.3536ZM10 20.5H29V19.5H10V20.5Z" fill="white"/>
</svg>
