<svg width="70" height="70" viewBox="0 0 70 70" fill="none" xmlns="http://www.w3.org/2000/svg">
<circle cx="35" cy="35" r="35" fill="#346DA6"/>
<path d="M31.5055 36.17V33.29H32.4655C35.4855 33.29 36.9955 32.22 36.9955 30.08C36.9955 29.16 36.6655 28.42 36.0055 27.86C35.3655 27.3 34.5755 27.02 33.6355 27.02C32.7755 27.02 32.0455 27.27 31.4455 27.77C30.8655 28.27 30.4655 28.93 30.2455 29.75L26.8555 28.88C27.2355 27.44 28.0655 26.27 29.3455 25.37C30.6255 24.47 32.1055 24.02 33.7855 24.02C35.7455 24.02 37.3755 24.53 38.6755 25.55C39.9755 26.57 40.6255 28 40.6255 29.84C40.6255 30.98 40.2755 32 39.5755 32.9C38.8755 33.78 37.9555 34.36 36.8155 34.64V34.7C38.1155 34.96 39.1655 35.55 39.9655 36.47C40.7855 37.39 41.1955 38.5 41.1955 39.8C41.1955 41.86 40.4555 43.47 38.9755 44.63C37.4955 45.77 35.7655 46.34 33.7855 46.34C31.9055 46.34 30.2855 45.93 28.9255 45.11C27.5655 44.29 26.6155 43.03 26.0755 41.33L29.4355 40.28C29.6955 41.16 30.1955 41.88 30.9355 42.44C31.6755 43 32.5855 43.28 33.6655 43.28C34.7255 43.28 35.6355 42.99 36.3955 42.41C37.1755 41.83 37.5655 40.95 37.5655 39.77C37.5655 38.91 37.2755 38.2 36.6955 37.64C36.1355 37.06 35.4855 36.67 34.7455 36.47C34.0255 36.27 33.2455 36.17 32.4055 36.17H31.5055Z" fill="white"/>
</svg>
