<svg width="70" height="70" viewBox="0 0 70 70" fill="none" xmlns="http://www.w3.org/2000/svg">
<g clip-path="url(#clip0_7446_32509)">
<path d="M68.1525 46.6667C67.1803 49.5833 65.8192 52.3056 64.1664 54.8333C63.8747 55.3194 63.4858 55.8056 63.1941 56.1944C62.6108 56.9722 61.9303 57.75 61.2497 58.5278C60.083 59.7917 58.8191 61.0556 57.458 62.125C56.4858 62.9028 55.5136 63.6806 54.4441 64.3611C52.8886 65.4305 51.1386 66.3056 49.3886 67.0833C48.4164 67.5694 47.3469 67.8611 46.2775 68.25C42.3886 69.4167 38.6942 70 34.9997 70H34.8053C29.8469 70 25.1803 68.9306 20.9997 67.0833C19.7358 66.5 18.3747 65.8194 17.208 65.1389C15.7497 64.2639 14.2914 63.2917 13.0275 62.2222C12.5414 61.8333 12.1525 61.4444 11.6664 61.0556C10.5969 60.1806 9.62471 59.2083 8.74971 58.1389C7.68026 56.9722 6.70804 55.7083 5.83304 54.3472C3.30526 50.5556 1.55526 46.375 0.680261 41.8056C-0.389183 36.4583 -0.194739 30.5278 1.45804 24.5C2.43026 21.0972 3.88859 17.7917 5.83304 14.875C6.70804 13.5139 7.68026 12.25 8.74971 11.0833C11.8608 7.58333 15.7497 4.86111 20.2219 3.01389C20.3191 3.01389 20.4164 2.91667 20.5136 2.91667C22.9441 1.94444 25.3747 1.16667 27.8053 0.680556C30.2358 0.194444 32.6664 0 34.9997 0C39.958 0 44.7219 1.06944 48.9997 2.91667C53.7636 4.95833 57.8469 8.06944 61.2497 11.8611C62.3191 13.0278 63.2914 14.2917 64.1664 15.6528C69.8053 24.1111 71.8469 35.1944 68.1525 46.6667Z" fill="#CDD3DD"/>
<path d="M58.334 31.1111H10.6951C7.97287 31.1111 5.83398 28.9722 5.83398 26.25V13.6111C5.83398 10.8889 7.97287 8.75 10.6951 8.75H58.334C61.0562 8.75 63.1951 10.8889 63.1951 13.6111V26.25C63.1951 28.9722 61.0562 31.1111 58.334 31.1111Z" fill="url(#paint0_linear_7446_32509)"/>
<path d="M55.8049 27.3194H44.2355C43.166 27.3194 42.291 26.4444 42.291 25.3749V14.5832C42.291 13.5138 43.166 12.6388 44.2355 12.6388H55.8049C56.8744 12.6388 57.7494 13.5138 57.7494 14.5832V25.3749C57.7494 26.4444 56.8744 27.3194 55.8049 27.3194ZM34.5132 12.6388H13.1243C12.3466 12.6388 11.666 13.3193 11.666 14.0971C11.666 14.8749 12.3466 15.5555 13.1243 15.5555H34.5132C35.291 15.5555 35.9716 14.8749 35.9716 14.0971C35.9716 13.3193 35.291 12.6388 34.5132 12.6388ZM27.7077 18.4721H13.1243C12.3466 18.4721 11.666 19.1527 11.666 19.9305C11.666 20.7082 12.3466 21.3888 13.1243 21.3888H27.7077C28.4855 21.3888 29.166 20.7082 29.166 19.9305C29.166 19.1527 28.4855 18.4721 27.7077 18.4721ZM30.6244 24.3055H13.1243C12.3466 24.3055 11.666 24.986 11.666 25.7638C11.666 26.5416 12.3466 27.2221 13.1243 27.2221H30.6244C31.4021 27.2221 32.0827 26.5416 32.0827 25.7638C32.0827 24.986 31.4021 24.3055 30.6244 24.3055Z" fill="white"/>
<path d="M52.5 46.6667H4.86111C2.13889 46.6667 0 44.5278 0 41.8055V29.1667C0 26.4444 2.13889 24.3055 4.86111 24.3055H52.5C55.2222 24.3055 57.3611 26.4444 57.3611 29.1667V41.8055C57.3611 44.5278 55.2222 46.6667 52.5 46.6667Z" fill="url(#paint1_linear_7446_32509)"/>
<path d="M49.9729 42.875H38.4034C37.334 42.875 36.459 42 36.459 40.9306V30.1389C36.459 29.0695 37.334 28.1945 38.4034 28.1945H49.9729C51.0423 28.1945 51.9173 29.0695 51.9173 30.1389V40.9306C51.9173 42 51.0423 42.875 49.9729 42.875Z" fill="white"/>
<path d="M41.8047 35L43.7491 36.9445L48.6102 32.0834" stroke="url(#paint2_linear_7446_32509)" stroke-width="3" stroke-miterlimit="10" stroke-linecap="round" stroke-linejoin="round"/>
<path d="M22.8479 28.1945H7.29232C6.51454 28.1945 5.83398 28.875 5.83398 29.6528C5.83398 30.4306 6.51454 31.1111 7.29232 31.1111H22.8479C23.6257 31.1111 24.3062 30.4306 24.3062 29.6528C24.3062 28.875 23.6257 28.1945 22.8479 28.1945ZM28.6812 34.0278H7.29232C6.51454 34.0278 5.83398 34.7083 5.83398 35.4861C5.83398 36.2639 6.51454 36.9445 7.29232 36.9445H28.6812C29.459 36.9445 30.1395 36.2639 30.1395 35.4861C30.1395 34.7083 29.459 34.0278 28.6812 34.0278ZM24.7923 39.8611H7.29232C6.51454 39.8611 5.83398 40.5417 5.83398 41.3195C5.83398 42.0972 6.51454 42.7778 7.29232 42.7778H24.7923C25.5701 42.7778 26.2507 42.0972 26.2507 41.3195C26.2507 40.5417 25.5701 39.8611 24.7923 39.8611Z" fill="white"/>
<path d="M63.1951 44.7223V56.1945C62.6118 56.9723 61.9312 57.7501 61.2507 58.5279C60.084 59.7918 58.8201 61.0557 57.459 62.1251H13.0284C12.5423 61.7362 12.1534 61.3473 11.6673 60.9584C10.5979 60.0834 9.62565 59.1112 8.75065 58.0418C7.68121 56.8751 6.70898 55.6112 5.83398 54.2501V44.7223C5.83398 42.0001 7.97287 39.8612 10.6951 39.8612H58.334C61.0562 39.8612 63.1951 42.0001 63.1951 44.7223Z" fill="#B0C154"/>
<path d="M55.8049 58.4306H44.2355C43.166 58.4306 42.291 57.5556 42.291 56.4862V45.6945C42.291 44.6251 43.166 43.7501 44.2355 43.7501H55.8049C56.8744 43.7501 57.7494 44.6251 57.7494 45.6945V56.4862C57.7494 57.5556 56.8744 58.4306 55.8049 58.4306ZM32.5688 43.7501H13.1243C12.3466 43.7501 11.666 44.4307 11.666 45.2084C11.666 45.9862 12.3466 46.6668 13.1243 46.6668H32.5688C33.3466 46.6668 34.0271 45.9862 34.0271 45.2084C34.0271 44.4307 33.3466 43.7501 32.5688 43.7501ZM34.5132 49.5834H13.1243C12.3466 49.5834 11.666 50.264 11.666 51.0418C11.666 51.8195 12.3466 52.5001 13.1243 52.5001H34.5132C35.291 52.5001 35.9716 51.8195 35.9716 51.0418C35.9716 50.264 35.291 49.5834 34.5132 49.5834ZM26.7355 55.4168H13.1243C12.3466 55.4168 11.666 56.0973 11.666 56.8751C11.666 57.6529 12.3466 58.3334 13.1243 58.3334H26.7355C27.5132 58.3334 28.1938 57.6529 28.1938 56.8751C28.1938 56.0973 27.5132 55.4168 26.7355 55.4168ZM59.2077 4.27787C63.0966 8.16676 63.0966 14.4862 59.2077 18.4723C55.3188 22.3612 48.9994 22.3612 45.0132 18.4723C41.1244 14.5834 41.1244 8.26398 45.0132 4.27787C48.9994 0.388984 55.3188 0.388984 59.2077 4.27787Z" fill="white"/>
<path d="M69.6096 26.9306L61.054 18.375C64.554 13.9028 64.2624 7.38889 60.179 3.30556C58.0402 1.16667 55.2207 0 52.2068 0C49.1929 0 46.2763 1.16667 44.1374 3.30556C39.6651 7.77778 39.6651 14.9722 44.1374 19.3472C46.2763 21.4861 49.0957 22.6528 52.2068 22.6528C54.8318 22.6528 57.2624 21.7778 59.2068 20.2222L67.7624 28.7778C68.054 29.0694 68.3457 29.1667 68.7346 29.1667C69.1235 29.1667 69.4152 29.0694 69.7068 28.7778C70.0957 28.2917 70.0957 27.4167 69.6096 26.9306ZM46.0818 17.5C42.679 14.0972 42.679 8.65278 46.0818 5.25C47.7346 3.59722 49.8735 2.72222 52.2068 2.72222C54.5402 2.72222 56.679 3.59722 58.3318 5.25C61.7346 8.65278 61.7346 14.0972 58.3318 17.5C56.679 19.1528 54.5402 20.0278 52.2068 20.0278C49.8735 20.0278 47.6374 19.1528 46.0818 17.5Z" fill="#3F4561"/>
<path d="M56.9727 6.51379C59.5977 9.13879 59.5977 13.5138 56.9727 16.1388C54.3477 18.7638 49.9727 18.7638 47.3477 16.1388C44.7227 13.5138 44.7227 9.13879 47.3477 6.51379C49.9727 3.88879 54.3477 3.88879 56.9727 6.51379Z" fill="#91C6F0"/>
<path d="M50.9449 16.2362C48.3199 13.6112 48.3199 9.23621 50.9449 6.61121C51.8199 5.73621 52.8893 5.15287 53.9588 4.86121C51.7227 4.27787 49.0977 4.86121 47.3477 6.61121C44.7227 9.23621 44.7227 13.6112 47.3477 16.2362C49.0977 17.9862 51.6254 18.5695 53.9588 17.9862C52.7921 17.6945 51.8199 17.1112 50.9449 16.2362Z" fill="#79ADE1"/>
<path d="M46.666 51.5279L48.6105 53.4723L53.4716 48.6112" stroke="url(#paint3_linear_7446_32509)" stroke-width="3" stroke-miterlimit="10" stroke-linecap="round" stroke-linejoin="round"/>
</g>
<defs>
<linearGradient id="paint0_linear_7446_32509" x1="34.5145" y1="35.3936" x2="34.5145" y2="5.0189" gradientUnits="userSpaceOnUse">
<stop/>
<stop offset="0.0203518" stop-color="#0B1109"/>
<stop offset="0.0714211" stop-color="#23351D"/>
<stop offset="0.1289" stop-color="#38552F"/>
<stop offset="0.1924" stop-color="#4A713E"/>
<stop offset="0.2641" stop-color="#58874A"/>
<stop offset="0.3478" stop-color="#649854"/>
<stop offset="0.4514" stop-color="#6BA35A"/>
<stop offset="0.5967" stop-color="#70AA5E"/>
<stop offset="1" stop-color="#71AC5F"/>
</linearGradient>
<linearGradient id="paint1_linear_7446_32509" x1="28.6806" y1="49.5047" x2="28.6806" y2="18.5295" gradientUnits="userSpaceOnUse">
<stop/>
<stop offset="0.0192982" stop-color="#070A10"/>
<stop offset="0.0703993" stop-color="#172234"/>
<stop offset="0.1279" stop-color="#263754"/>
<stop offset="0.1915" stop-color="#324970"/>
<stop offset="0.2632" stop-color="#3B5886"/>
<stop offset="0.3471" stop-color="#436397"/>
<stop offset="0.4508" stop-color="#486AA2"/>
<stop offset="0.5962" stop-color="#4B6FA9"/>
<stop offset="1" stop-color="#4C70AB"/>
</linearGradient>
<linearGradient id="paint2_linear_7446_32509" x1="40.3464" y1="34.5139" x2="50.0686" y2="34.5139" gradientUnits="userSpaceOnUse">
<stop stop-color="#A3CFB9"/>
<stop offset="1" stop-color="#79C0C0"/>
</linearGradient>
<linearGradient id="paint3_linear_7446_32509" x1="45.2077" y1="51.0418" x2="54.9299" y2="51.0418" gradientUnits="userSpaceOnUse">
<stop stop-color="#A3CFB9"/>
<stop offset="1" stop-color="#79C0C0"/>
</linearGradient>
<clipPath id="clip0_7446_32509">
<rect width="70" height="70" fill="white"/>
</clipPath>
</defs>
</svg>
