<svg width="70" height="70" viewBox="0 0 70 70" fill="none" xmlns="http://www.w3.org/2000/svg">
<circle cx="35" cy="35" r="35" fill="#346DA6"/>
<path d="M27.2155 45.8V42.5L35.4055 34.46C36.8455 33.06 37.5655 31.67 37.5655 30.29C37.5655 29.31 37.2455 28.52 36.6055 27.92C35.9655 27.32 35.1555 27.02 34.1755 27.02C33.1755 27.02 32.3555 27.36 31.7155 28.04C31.0955 28.7 30.7155 29.57 30.5755 30.65L27.0655 30.11C27.2855 28.33 28.0555 26.87 29.3755 25.73C30.6955 24.59 32.3155 24.02 34.2355 24.02C36.1955 24.02 37.8655 24.57 39.2455 25.67C40.6255 26.77 41.3155 28.29 41.3155 30.23C41.3155 31.49 41.0155 32.62 40.4155 33.62C39.8355 34.6 38.9955 35.61 37.8955 36.65L31.7755 42.5H41.3455V45.8H27.2155Z" fill="white"/>
</svg>
